<?xml version="1.0" standalone="no"?>
<!DOCTYPE svg PUBLIC "-//W3C//DTD SVG 20010904//EN"
 "http://www.w3.org/TR/2001/REC-SVG-20010904/DTD/svg10.dtd">
<svg version="1.0" xmlns="http://www.w3.org/2000/svg"
 width="592.000000pt" height="592.000000pt" viewBox="0 0 592.000000 592.000000"
 preserveAspectRatio="xMidYMid meet">
<metadata>
Created by potrace 1.14, written by Peter Selinger 2001-2017
</metadata>
<g transform="translate(0.000000,592.000000) scale(0.100000,-0.100000)"
fill="#000000" stroke="none">
<path d="M2943 4902 l-2923 -2 0 -1950 0 -1950 2935 0 2935 0 0 1949 c0 1551
-3 1950 -12 1952 -7 2 -1328 3 -2935 1z m2927 -1947 l0 -1925 -2915 0 -2915 0
0 1925 0 1925 2915 0 2915 0 0 -1925z"/>
<path d="M1573 4293 c-29 -2 -53 -8 -53 -12 0 -17 -170 -46 -575 -101 -82 -11
-197 -33 -255 -50 -58 -16 -113 -30 -122 -30 -10 0 -18 -6 -18 -14 0 -20 -38
-102 -53 -114 -7 -6 -29 -42 -47 -79 -37 -74 -109 -151 -182 -195 l-46 -28 -4
-122 c-4 -102 -8 -130 -27 -166 -12 -24 -28 -45 -36 -48 -9 -4 -13 -19 -12
-42 l2 -37 -47 -3 -48 -3 0 -409 c0 -474 -17 -416 133 -455 145 -38 274 -73
362 -99 44 -14 123 -36 175 -50 303 -80 363 -96 440 -114 171 -42 316 -81 347
-94 18 -8 57 -41 87 -74 39 -44 72 -68 116 -88 49 -22 65 -35 76 -61 43 -104
220 -135 404 -70 59 21 90 25 145 23 56 -2 70 0 73 12 2 11 -13 21 -48 32 -59
19 -78 17 -180 -19 -61 -22 -93 -27 -175 -27 -91 -1 -104 1 -146 26 -51 30
-75 55 -65 65 4 4 56 6 117 4 90 -2 120 1 173 19 35 11 72 27 82 35 18 13 18
14 1 20 -9 4 -39 0 -65 -8 -158 -51 -236 -56 -334 -22 -110 38 -246 159 -160
142 15 -3 56 -13 92 -22 48 -13 91 -16 165 -12 111 5 210 33 181 49 -10 6 -39
7 -64 4 -221 -26 -320 -17 -429 39 -103 53 -271 205 -226 205 4 0 50 -20 102
-45 167 -77 392 -128 487 -111 36 7 37 9 20 21 -10 8 -44 17 -75 20 -287 31
-507 122 -625 257 -45 51 -116 171 -116 194 0 24 35 15 66 -17 72 -77 221
-173 359 -233 134 -58 345 -111 345 -86 0 16 -49 36 -221 94 -90 30 -191 70
-224 88 -250 144 -321 207 -379 343 -29 68 -35 89 -26 105 16 31 36 24 69 -23
74 -107 244 -233 457 -337 133 -65 308 -129 320 -117 12 12 -31 38 -166 100
-181 83 -292 142 -395 211 -118 79 -233 194 -270 269 -15 31 -31 60 -36 63
-13 8 -11 48 3 62 21 21 39 14 107 -42 116 -94 297 -198 471 -271 117 -49 333
-160 421 -217 115 -74 152 -123 115 -152 -21 -17 -64 -100 -71 -139 -8 -41 22
-90 124 -201 36 -40 99 -118 140 -174 78 -108 101 -127 229 -191 130 -65 215
-85 362 -85 132 0 172 8 342 65 96 32 178 39 178 14 0 -24 33 -34 95 -28 45 4
84 -1 160 -21 149 -39 314 -32 388 17 15 10 73 17 192 22 94 5 179 8 190 8
255 -6 877 -2 965 7 157 15 242 28 276 41 16 6 45 12 64 14 19 2 47 8 63 14
l27 11 0 264 0 264 -45 17 c-42 16 -63 43 -51 64 3 5 1 34 -5 64 -8 37 -8 73
-2 111 8 45 7 56 -4 56 -15 0 -17 16 -3 25 12 8 13 25 1 25 -5 0 -16 -16 -25
-35 -9 -19 -22 -35 -28 -35 -17 0 -2 -11 19 -14 13 -2 17 -10 15 -27 -5 -34
-39 -99 -70 -132 -36 -38 -119 -90 -131 -82 -6 3 -8 38 -5 88 5 91 0 84 101
147 33 21 72 54 85 74 14 20 28 33 31 30 11 -12 19 25 12 54 -7 25 -8 25 -15
7 -7 -16 -9 -13 -9 15 0 22 2 30 8 22 4 -8 8 40 8 110 1 71 -3 126 -9 129 -14
9 -108 90 -138 119 -14 14 -37 31 -52 39 -16 8 -28 18 -28 23 0 5 -5 6 -11 3
-6 -4 -17 2 -25 14 -8 11 -30 23 -49 27 -19 3 -35 10 -35 15 0 5 -7 9 -16 9
-9 0 -28 9 -44 20 -15 11 -30 17 -33 13 -4 -3 -26 4 -49 16 -24 11 -86 37
-138 56 -52 20 -110 42 -128 50 -18 8 -49 15 -68 15 -19 0 -33 4 -30 9 3 5
-11 11 -32 15 -20 3 -50 13 -66 21 -15 8 -46 15 -68 15 -22 0 -37 4 -33 9 3 6
-11 13 -32 16 -21 4 -47 10 -58 13 -30 9 -32 9 -71 11 -19 0 -33 5 -30 10 7
11 -49 22 -71 14 -15 -6 -16 -4 -6 8 10 13 5 17 -35 28 -26 8 -78 27 -116 43
-44 18 -73 25 -79 19 -5 -5 -17 -7 -26 -3 -13 5 -14 3 -3 -10 11 -13 8 -16
-19 -22 -43 -8 -51 -8 -44 4 4 6 -10 10 -34 10 -22 0 -43 -4 -46 -10 -10 -16
-51 -12 -66 6 -11 14 -9 15 19 12 60 -6 37 17 -73 74 -116 60 -135 67 -115 43
24 -29 1 -15 -40 25 -24 23 -59 49 -80 60 -41 21 -271 105 -310 114 -14 3 -43
20 -65 39 -22 18 -59 39 -83 46 -28 8 -40 16 -36 24 4 7 4 9 -1 5 -4 -4 -13
-4 -19 1 -6 5 -33 12 -61 15 -27 3 -63 10 -80 15 -28 9 -27 9 20 11 l50 2 -55
9 c-133 21 -209 30 -270 32 -36 2 -70 6 -76 10 -13 8 -69 14 -209 23 -55 3
-116 8 -135 10 -58 6 -711 12 -767 7z m1468 -174 c8 -15 8 -24 0 -32 -6 -6
-11 -19 -11 -28 0 -24 -27 -31 -40 -11 -10 15 -10 15 -8 -3 3 -18 14 -21 118
-28 63 -4 157 -4 208 -1 89 6 97 5 195 -31 140 -50 203 -82 223 -113 27 -41
55 -154 42 -169 -8 -10 -2 -13 28 -13 29 0 35 -3 24 -10 -18 -12 -110 -13
-110 -2 0 5 -66 12 -147 16 -173 9 -200 12 -273 26 -30 6 -79 15 -109 20 -64
11 -103 31 -225 112 -81 54 -280 161 -350 188 -33 12 -43 37 -23 57 13 13 48
16 194 18 100 1 189 7 203 13 37 16 48 14 61 -9z m-846 -38 c50 -10 108 -27
130 -38 l40 -19 -2 -63 c-1 -35 -6 -68 -12 -74 -19 -19 -320 38 -368 68 -24
16 -83 100 -83 119 0 7 3 16 7 19 13 14 201 6 288 -12z m-698 -368 c-2 -21 -4
-4 -4 37 0 41 2 58 4 38 2 -21 2 -55 0 -75z m-507 57 c8 -5 11 -10 5 -10 -5 0
-17 5 -25 10 -8 5 -10 10 -5 10 6 0 17 -5 25 -10z m95 -25 c22 -7 33 -13 25
-14 -8 0 -35 6 -60 13 -25 8 -36 15 -25 15 11 0 38 -6 60 -14z m189 -41 c49
-10 84 -20 78 -22 -13 -4 -214 37 -222 45 -6 7 28 1 144 -23z m347 -63 c129
-22 331 -54 449 -71 118 -18 252 -38 298 -44 45 -7 85 -16 90 -21 9 -10 -73 0
-293 36 -233 38 -378 61 -602 95 -101 15 -183 32 -183 36 0 10 -26 14 241 -31z
m2629 -41 c8 -5 11 -10 5 -10 -5 0 -17 5 -25 10 -8 5 -10 10 -5 10 6 0 17 -5
25 -10z m85 -10 c18 -8 17 -9 -7 -9 -16 -1 -28 4 -28 9 0 12 8 12 35 0z
m-1735 -41 c0 -5 -3 -9 -7 -9 -5 0 -9 -14 -10 -30 -2 -28 0 -30 32 -30 19 0
35 -4 35 -10 0 -11 -32 -12 -69 -1 -27 7 -35 39 -20 78 8 22 39 23 39 2z
m2019 -5 c2 -2 2 -7 -2 -10 -3 -3 -25 1 -49 10 l-43 16 45 -6 c25 -4 47 -8 49
-10z m66 -24 c3 -6 -1 -7 -9 -4 -18 7 -21 14 -7 14 6 0 13 -4 16 -10z m-3038
-96 c-3 -3 -12 -4 -19 -1 -8 3 -5 6 6 6 11 1 17 -2 13 -5z m1391 0 c54 -15 2
-28 -56 -15 -2 1 0 6 3 11 7 11 20 12 53 4z m242 -39 c85 -14 159 -30 164 -35
15 -15 -4 -13 -176 15 -197 33 -200 34 -193 45 4 6 16 8 28 5 12 -3 92 -16
177 -30z m-160 -225 c189 -54 351 -185 439 -357 21 -41 3 -24 -40 37 -80 114
-265 236 -419 275 -186 48 -385 17 -555 -86 -70 -42 -137 -106 -202 -192 -28
-37 -53 -62 -55 -56 -2 7 -14 -4 -27 -24 -24 -40 -34 -48 -24 -19 38 105 185
275 296 341 176 104 396 134 587 81z m1288 -6 c60 -5 231 -32 319 -50 28 -5
40 -1 77 30 51 41 71 45 87 15 12 -24 3 -47 -65 -157 -78 -127 -294 -275 -610
-417 -188 -84 -226 -104 -226 -119 0 -37 356 112 555 234 81 49 235 176 235
193 0 7 14 28 29 47 29 34 29 35 50 15 12 -10 19 -25 16 -33 -4 -12 5 -13 57
-8 35 4 65 9 67 11 2 2 -4 11 -13 20 -9 9 -16 32 -16 52 0 31 -4 36 -40 50
-36 14 -54 33 -32 33 42 0 248 -80 304 -118 26 -17 26 -20 13 -39 -28 -39 -95
-57 -192 -49 -48 3 -104 9 -124 12 -36 6 -37 6 -53 -42 -25 -76 -99 -167 -182
-224 -40 -27 -75 -50 -79 -50 -4 0 -20 -9 -35 -20 -62 -44 -214 -110 -356
-155 -157 -50 -204 -69 -204 -85 0 -20 201 25 320 72 145 57 315 158 400 237
24 23 50 41 57 41 19 0 27 -26 14 -42 -7 -7 -29 -42 -50 -78 -47 -79 -164
-185 -253 -228 -119 -57 -256 -93 -427 -113 -45 -5 -95 -16 -109 -23 l-26 -14
43 -7 c114 -19 347 33 516 115 45 22 87 40 94 40 22 0 11 -28 -21 -53 -18 -14
-53 -44 -78 -67 -25 -22 -83 -59 -128 -82 -114 -55 -196 -66 -372 -48 -91 9
-134 10 -141 3 -19 -19 79 -45 191 -50 85 -4 121 -1 189 16 103 26 120 17 65
-34 -34 -31 -69 -50 -191 -108 -34 -16 -179 -1 -268 27 -91 29 -115 32 -115
12 0 -39 187 -80 318 -69 84 7 90 -1 35 -46 -68 -56 -208 -67 -333 -27 -125
41 -159 46 -202 31 -82 -28 -91 0 -32 97 19 32 33 62 29 68 -3 5 6 27 19 49
19 30 30 38 46 34 13 -3 20 0 21 8 3 79 24 170 46 205 9 15 11 35 7 63 -4 23
-3 41 3 41 14 0 -20 231 -43 288 -17 42 -1 43 50 3 35 -28 36 -30 17 -40 -32
-17 -36 -49 -10 -77 12 -13 19 -27 15 -31 -4 -4 -11 -1 -16 7 -8 12 -10 11
-10 -5 0 -35 29 -67 55 -61 20 5 23 0 35 -51 8 -31 24 -68 37 -82 l22 -26 1
28 c0 33 -48 137 -67 144 -14 5 -17 40 -7 67 13 34 103 89 372 228 48 25 51
33 20 49 -13 6 -33 21 -46 32 -25 24 -15 37 29 37 15 0 48 8 75 19 99 37 119
44 140 45 23 1 22 18 -4 49 -8 9 -11 17 -7 17 5 0 -2 12 -16 27 -13 14 -19 23
-12 20 19 -12 45 3 33 18 -12 15 -95 49 -159 65 -78 20 -36 21 50 1 46 -11 87
-17 92 -14 5 3 31 -7 58 -22 44 -24 61 -27 160 -28 94 -2 112 -5 120 -19 6
-10 16 -18 23 -18 14 0 52 37 45 44 -2 2 -40 10 -84 16 -110 16 -206 30 -230
34 -11 2 -27 4 -36 5 -8 0 -24 8 -35 17 -16 13 -17 15 -1 10 9 -3 48 -8 85
-12z m-3867 -82 c8 -4 28 -17 44 -30 l29 -23 -22 -15 c-24 -16 -28 -47 -12
-88 11 -31 30 -34 30 -6 0 13 5 18 15 14 8 -4 17 1 21 10 9 23 29 20 48 -9 23
-35 20 -55 -7 -55 -37 0 -61 -33 -50 -67 7 -22 18 -30 51 -37 41 -10 42 -11
42 -53 0 -49 -5 -52 -37 -21 -21 19 -26 20 -34 8 -8 -12 -9 -11 -7 5 2 14 -3
21 -18 23 -20 3 -21 0 -15 -35 9 -48 37 -91 62 -95 19 -3 19 -4 -1 -36 -38
-61 -121 -94 -189 -74 -48 15 -112 71 -156 136 -31 48 -36 62 -41 143 -8 105
5 170 44 228 44 64 144 102 203 77z m148 -284 c1 -5 -3 -8 -9 -8 -5 0 -10 12
-9 28 0 24 1 25 9 7 5 -11 9 -23 9 -27z m2456 -123 c50 -13 118 -29 153 -35
62 -11 63 -11 104 19 36 26 74 44 55 25 -3 -3 3 -14 14 -25 27 -27 24 -51 -9
-69 -21 -12 -43 -13 -107 -7 -44 5 -88 12 -97 18 -9 5 -35 11 -56 15 l-40 6
10 -53 c23 -123 0 -182 -128 -326 -78 -89 -121 -111 -256 -133 -62 -10 -115
-16 -117 -14 -2 2 -70 491 -71 512 0 1 -10 -3 -22 -10 -13 -6 -34 -11 -48 -10
-14 1 -50 -2 -80 -7 -61 -10 -100 6 -100 40 0 16 6 18 44 13 27 -4 79 1 142
15 55 11 140 27 189 35 50 9 101 18 115 20 54 10 219 -6 305 -29z m1693 -188
c12 -11 22 -26 22 -34 0 -7 17 -15 40 -19 23 -4 40 -12 40 -20 0 -21 -22 -28
-32 -10 -5 9 -18 16 -29 16 -11 0 -18 -3 -15 -8 2 -4 -2 -22 -10 -41 -12 -29
-17 -32 -41 -27 -56 14 -112 107 -79 131 9 7 16 19 16 28 0 33 42 26 88 -16z
m138 -84 c-10 -10 -19 5 -10 18 6 11 8 11 12 0 2 -7 1 -15 -2 -18z m-1510 -21
c6 -4 14 -15 17 -26 7 -17 4 -18 -29 -13 -33 6 -36 4 -31 -16 29 -112 30 -114
48 -110 23 6 23 2 4 -44 -8 -19 -15 -44 -15 -55 0 -11 -17 -38 -39 -59 -65
-66 -110 -54 -180 49 -30 43 -17 40 35 -8 49 -45 53 -46 95 -24 30 15 30 16
13 42 -9 15 -25 37 -36 48 -20 23 -45 151 -34 179 3 10 19 15 46 15 22 0 40 4
40 9 0 9 19 17 45 20 6 0 15 -3 21 -7z m1454 -112 c0 -5 -5 -10 -11 -10 -5 0
-7 5 -4 10 3 6 8 10 11 10 2 0 4 -4 4 -10z m-2453 -199 c33 -17 40 -14 87 29
76 70 93 44 21 -32 -48 -52 -75 -59 -123 -34 -24 12 -72 80 -72 102 0 4 15 -6
33 -23 17 -17 42 -36 54 -42z m286 -192 c82 -29 259 -31 327 -4 82 31 125 19
80 -22 -31 -30 -85 -44 -189 -50 -154 -10 -291 27 -291 77 0 25 -3 25 73 -1z"/>
<path d="M5024 2984 c28 -19 41 -23 49 -15 8 8 6 11 -8 11 -11 0 -29 7 -39 15
-11 8 -25 15 -30 15 -6 0 7 -12 28 -26z"/>
<path d="M3686 2267 c3 -10 9 -15 12 -12 3 3 0 11 -7 18 -10 9 -11 8 -5 -6z"/>
<path d="M473 3033 c-18 -39 -16 -55 12 -93 30 -41 37 -28 33 56 -3 66 -24 83
-45 37z"/>
<path d="M405 2927 c-4 -9 -11 -15 -15 -12 -11 7 -20 -19 -12 -32 8 -11 73
-35 80 -29 6 7 -7 39 -28 66 -17 22 -20 23 -25 7z"/>
<path d="M500 2796 c0 -28 24 -53 35 -36 4 6 4 22 1 36 -8 31 -36 32 -36 0z"/>
<path d="M383 2765 c1 -25 3 -45 4 -45 1 0 14 5 28 12 34 15 34 55 -1 68 -14
6 -27 10 -29 10 -2 0 -3 -20 -2 -45z"/>
<path d="M345 2780 c-3 -5 -1 -10 4 -10 6 0 11 5 11 10 0 6 -2 10 -4 10 -3 0
-8 -4 -11 -10z"/>
<path d="M436 2676 c-32 -27 -23 -39 23 -30 24 5 31 12 31 30 0 30 -17 30 -54
0z"/>
<path d="M550 2659 c0 -8 7 -24 15 -35 11 -15 14 -16 15 -3 0 8 -7 24 -15 35
-11 15 -14 16 -15 3z"/>
<path d="M560 2591 c-38 -11 -32 -36 8 -34 40 1 44 5 36 27 -7 17 -7 17 -44 7z"/>
<path d="M2835 2540 c-28 -3 -39 -10 -38 -20 13 -98 35 -249 39 -262 6 -21 66
-24 127 -7 30 8 37 15 37 34 0 18 5 25 20 25 11 0 20 5 20 11 0 7 -9 9 -22 5
-35 -9 -98 -19 -98 -15 0 13 -40 232 -42 233 -2 1 -21 -1 -43 -4z"/>
<path d="M5094 1620 c-73 -29 -71 -146 3 -170 32 -11 89 -6 97 8 2 4 6 19 10
35 5 23 3 27 -14 27 -17 0 -20 -4 -15 -20 15 -46 -46 -68 -81 -29 -40 44 -14
149 36 149 10 0 29 -9 44 -21 20 -16 26 -17 26 -6 0 8 -14 20 -31 26 -37 13
-46 13 -75 1z"/>
<path d="M725 1535 c0 -50 4 -85 10 -85 6 0 9 26 8 62 l-2 63 30 -65 c31 -64
31 -64 45 -40 16 30 18 43 4 35 -6 -4 -22 19 -37 54 -16 38 -32 61 -42 61 -13
0 -16 -14 -16 -85z"/>
<path d="M849 1574 c-11 -26 -17 -49 -14 -52 3 -3 5 -1 5 4 0 6 7 19 15 30 14
17 15 14 13 -44 -3 -52 0 -62 14 -62 14 0 17 13 20 85 3 76 1 85 -15 85 -12 0
-25 -16 -38 -46z"/>
<path d="M1016 1603 c-4 -9 -2 -19 3 -22 5 -4 14 -19 20 -34 10 -26 9 -27 -22
-27 -28 0 -35 -5 -49 -35 -13 -30 -13 -35 -1 -35 8 0 12 3 10 8 -3 4 -1 17 4
30 6 16 16 22 39 22 23 0 33 -6 39 -22 5 -13 7 -26 4 -30 -2 -5 7 -8 22 -8 25
0 25 1 10 29 -8 16 -24 54 -36 85 -21 58 -32 68 -43 39z"/>
<path d="M1161 1599 c6 -13 9 -49 7 -85 -3 -56 -2 -64 13 -64 15 0 17 6 12 34
-10 61 38 57 51 -4 6 -33 31 -49 49 -31 8 8 7 11 -6 11 -9 0 -17 8 -17 17 0 9
-8 25 -17 36 -17 18 -17 19 0 28 20 11 23 49 5 67 -7 7 -34 12 -60 12 -47 0
-48 -1 -37 -21z m84 -8 c9 -28 -5 -51 -31 -51 -21 0 -24 5 -24 35 0 30 3 35
24 35 15 0 27 -7 31 -19z"/>
<path d="M1290 1598 c1 -21 2 -21 11 -5 5 9 21 17 35 17 25 0 26 0 22 -80 -3
-71 -1 -80 15 -80 15 0 17 10 17 80 0 78 1 80 24 80 13 0 27 -6 29 -12 3 -8 6
-6 6 5 1 15 -9 17 -79 17 -76 0 -80 -1 -80 -22z"/>
<path d="M1488 1535 c3 -72 6 -85 20 -85 15 0 17 12 17 85 0 78 -2 85 -20 85
-19 0 -20 -6 -17 -85z"/>
<path d="M1590 1605 c7 -9 10 -40 8 -85 -2 -42 1 -70 7 -70 6 0 9 26 7 62 l-3
63 58 -63 c32 -34 61 -62 65 -62 12 0 14 170 2 170 -6 0 -9 -22 -6 -60 3 -35
0 -60 -5 -60 -6 0 -32 27 -58 60 -29 37 -56 60 -68 60 -16 0 -17 -3 -7 -15z"/>
<path d="M1871 1599 c6 -13 9 -49 7 -85 -3 -55 -2 -64 13 -64 14 0 16 7 12 41
-6 41 -5 42 20 37 17 -3 27 -1 27 7 0 6 -10 11 -22 11 -19 -1 -23 4 -23 29 0
26 4 30 29 33 16 2 32 -2 37 -10 7 -10 9 -9 9 5 0 14 -9 17 -60 17 -59 0 -60
-1 -49 -21z"/>
<path d="M2018 1535 c3 -84 4 -85 29 -85 21 0 23 2 13 15 -7 9 -10 40 -8 85 3
64 1 70 -17 70 -19 0 -20 -6 -17 -85z"/>
<path d="M2172 1603 c28 -32 48 -81 48 -118 0 -27 4 -35 18 -35 15 0 18 6 14
29 -2 16 2 39 8 52 10 20 10 22 -1 12 -10 -10 -16 -7 -31 15 -10 15 -18 35
-18 45 0 12 -8 17 -27 17 -24 0 -25 -1 -11 -17z"/>
<path d="M2280 1598 c0 -20 1 -21 20 -3 11 10 20 20 20 22 0 1 -9 3 -20 3 -14
0 -20 -7 -20 -22z"/>
<path d="M2345 1535 c0 -50 4 -85 10 -85 6 0 9 27 7 67 l-3 68 43 -50 c24 -27
53 -61 65 -75 l22 -25 1 77 c0 42 3 83 6 92 4 10 1 16 -7 16 -11 0 -13 -15
-11 -62 l3 -63 -58 63 c-32 34 -62 62 -68 62 -6 0 -10 -35 -10 -85z"/>
<path d="M2550 1605 c7 -9 10 -40 8 -85 -2 -42 1 -70 7 -70 6 0 9 24 7 60 -3
39 0 60 7 60 6 0 11 -3 11 -7 1 -5 25 -35 55 -68 l53 -60 4 93 c2 57 -1 92 -7
92 -6 0 -9 -24 -7 -60 2 -33 0 -60 -5 -59 -4 0 -30 27 -57 60 -30 36 -57 59
-69 59 -16 0 -17 -3 -7 -15z"/>
<path d="M2835 1536 l0 -85 34 -6 c38 -7 53 0 22 10 -19 6 -21 14 -21 81 0 71
1 74 23 74 35 0 57 -21 64 -63 4 -30 1 -45 -16 -68 -28 -38 -2 -41 28 -3 30
38 27 80 -8 115 -24 24 -38 29 -78 29 l-48 0 0 -84z"/>
<path d="M3030 1605 c7 -9 10 -40 8 -85 -3 -65 -1 -70 17 -70 18 0 20 5 17 40
-6 59 28 49 43 -13 8 -32 31 -45 48 -28 8 8 8 11 -2 11 -6 0 -17 14 -22 30 -6
17 -16 30 -22 30 -6 0 -1 10 11 23 42 44 16 77 -60 77 -43 0 -49 -2 -38 -15z
m85 -30 c0 -23 -5 -31 -22 -33 -20 -3 -23 1 -23 33 0 32 3 36 23 33 17 -2 22
-10 22 -33z"/>
<path d="M3208 1535 c3 -72 6 -85 20 -85 15 0 17 10 14 70 -2 45 1 76 8 85 10
13 8 15 -16 15 l-29 0 3 -85z"/>
<path d="M3287 1614 c6 -3 26 -41 43 -85 18 -43 36 -79 40 -79 13 0 21 33 10
40 -13 8 -50 112 -44 122 3 5 -10 8 -28 7 -18 0 -28 -3 -21 -5z"/>
<path d="M3417 1588 c-6 -44 -4 -44 16 -3 13 28 14 35 3 35 -8 0 -16 -14 -19
-32z"/>
<path d="M3491 1599 c6 -13 9 -49 7 -85 l-4 -64 29 0 c26 0 27 1 12 16 -23 24
-16 59 13 58 12 0 22 5 22 12 0 7 -8 10 -19 7 -21 -5 -35 20 -26 48 7 22 60
27 68 7 3 -8 6 -6 6 5 1 14 -8 17 -59 17 -59 0 -60 -1 -49 -21z"/>
<path d="M3650 1605 c7 -9 10 -40 8 -85 -3 -65 -1 -70 17 -70 18 0 20 5 17 40
-3 24 0 40 6 40 15 0 42 -41 42 -63 0 -9 7 -20 15 -23 17 -7 41 6 28 15 -5 3
-17 21 -26 39 -14 30 -15 36 -2 49 18 18 19 45 3 61 -7 7 -36 12 -66 12 -47 0
-53 -2 -42 -15z m85 -30 c0 -23 -5 -31 -22 -33 -20 -3 -23 1 -23 33 0 32 3 36
23 33 17 -2 22 -10 22 -33z"/>
<path d="M3881 1603 c0 -11 3 -13 6 -5 2 6 16 12 30 12 24 0 25 -1 21 -80 -3
-74 -2 -80 17 -80 19 0 20 6 17 80 -4 80 -3 80 22 80 14 0 30 -8 35 -17 9 -16
10 -16 11 5 0 21 -4 22 -80 22 -70 0 -80 -2 -79 -17z"/>
<path d="M4070 1605 c7 -9 10 -40 8 -85 -3 -65 -1 -70 17 -70 18 0 20 5 17 40
-6 59 28 49 43 -13 8 -32 31 -45 48 -28 8 8 8 11 -2 11 -6 0 -17 14 -22 30 -6
17 -16 30 -22 30 -6 0 -1 10 11 23 42 44 16 77 -60 77 -43 0 -49 -2 -38 -15z
m86 -19 c7 -31 -1 -46 -27 -46 -15 0 -19 7 -19 35 0 28 4 35 20 35 12 0 22 -9
26 -24z"/>
<path d="M4306 1603 c-4 -9 -2 -19 3 -22 5 -4 13 -19 16 -34 7 -25 5 -27 -23
-27 -18 0 -32 -6 -36 -16 -10 -25 -7 -29 7 -10 9 12 23 17 42 14 24 -2 31 -8
33 -29 2 -21 10 -28 33 -31 26 -4 27 -3 15 11 -7 9 -26 49 -41 89 -29 74 -38
84 -49 55z"/>
<path d="M4435 1535 c0 -78 2 -85 20 -85 18 0 20 7 20 85 0 78 -2 85 -20 85
-18 0 -20 -7 -20 -85z"/>
<path d="M4535 1535 c0 -50 4 -85 10 -85 6 0 9 24 7 60 -2 33 0 60 5 60 5 0
34 -30 64 -67 l54 -67 3 79 c2 44 8 85 14 92 8 10 6 13 -8 13 -17 0 -19 -7
-16 -62 l3 -63 -58 63 c-32 34 -62 62 -68 62 -6 0 -10 -35 -10 -85z"/>
<path d="M4748 1535 c3 -72 6 -85 20 -85 15 0 17 10 14 70 -2 45 1 76 8 85 10
13 8 15 -16 15 l-29 0 3 -85z"/>
<path d="M4845 1535 c0 -50 4 -85 10 -85 6 0 9 24 7 60 -2 35 0 60 6 60 6 0
34 -30 64 -66 l53 -66 5 78 c3 44 9 85 13 92 6 8 2 12 -10 12 -16 0 -18 -8
-15 -62 l3 -63 -57 63 c-31 34 -61 62 -67 62 -8 0 -12 -27 -12 -85z"/>
<path d="M2120 1465 c-10 -12 -10 -15 4 -15 9 0 16 7 16 15 0 8 -2 15 -4 15
-2 0 -9 -7 -16 -15z"/>
<path d="M3592 1465 c-11 -12 -10 -15 3 -15 8 0 15 7 15 15 0 18 -2 18 -18 0z"/>
<path d="M4245 1460 c-3 -5 1 -10 10 -10 9 0 13 5 10 10 -3 6 -8 10 -10 10 -2
0 -7 -4 -10 -10z"/>
<path d="M2089 1342 c-12 -30 -11 -42 1 -42 6 0 10 5 10 10 0 6 20 10 44 10
l45 0 -39 -82 c-28 -61 -35 -86 -27 -96 17 -21 32 4 66 111 17 53 31 99 31
101 0 2 -28 6 -61 8 -57 3 -62 1 -70 -20z"/>
<path d="M1924 1339 c-28 -31 -27 -150 1 -178 36 -35 62 -35 95 -2 27 26 30
36 30 89 0 45 -5 66 -21 86 -26 33 -77 36 -105 5z m79 -35 c9 -45 0 -141 -14
-150 -5 -3 -16 0 -24 6 -19 16 -21 160 -3 178 19 19 32 9 41 -34z"/>
<path d="M2268 1349 c-22 -12 -24 -62 -4 -78 13 -11 12 -15 -5 -32 -36 -36
-18 -86 37 -103 24 -7 74 9 86 27 13 20 9 60 -8 78 -15 17 -15 19 0 34 20 20
20 35 0 63 -17 24 -74 30 -106 11z m70 -43 c3 -34 1 -37 -20 -34 -27 4 -37 41
-17 64 19 23 34 11 37 -30z m4 -81 c15 -32 -4 -78 -30 -73 -22 4 -30 77 -10
89 21 14 28 11 40 -16z"/>
<path d="M2430 1333 c-16 -20 -20 -36 -16 -57 9 -42 24 -56 62 -56 36 0 37 -2
28 -37 -8 -29 -33 -37 -54 -18 -24 21 -39 0 -17 -23 25 -24 87 3 110 48 22 43
18 121 -8 150 -27 30 -78 26 -105 -7z m78 -38 c3 -51 -11 -73 -35 -53 -16 13
-17 80 -1 96 21 21 33 7 36 -43z"/>
<path d="M2600 1328 c-23 -38 -26 -110 -7 -148 28 -56 101 -58 126 -3 19 41
14 127 -10 157 -31 40 -83 37 -109 -6z m83 -19 c11 -40 3 -137 -12 -152 -7 -7
-15 -6 -26 3 -19 16 -22 159 -3 178 18 18 31 9 41 -29z"/>
<path d="M2861 1334 c-16 -21 -21 -41 -21 -88 0 -33 6 -68 13 -77 58 -75 145
-16 135 92 -7 68 -30 99 -73 99 -24 0 -39 -7 -54 -26z m67 4 c19 -19 16 -162
-3 -178 -25 -21 -39 2 -43 73 -4 60 9 117 26 117 4 0 13 -5 20 -12z"/>
<path d="M3056 1298 c-56 -75 -57 -88 -11 -88 41 0 59 -25 32 -45 -27 -20 -20
-25 33 -25 28 0 50 5 50 10 0 6 -7 10 -15 10 -9 0 -15 9 -15 25 0 16 6 25 15
25 8 0 15 5 15 10 0 6 -7 10 -15 10 -12 0 -15 14 -15 65 0 84 -14 84 -74 3z
m34 -28 c0 -31 -16 -44 -45 -38 -13 2 -12 8 7 35 29 41 38 41 38 3z"/>
<path d="M3283 1334 c-22 -34 -28 -121 -11 -154 30 -56 102 -58 127 -3 19 41
14 127 -10 157 -28 36 -82 36 -106 0z m78 -11 c13 -35 7 -149 -9 -165 -8 -8
-15 -8 -27 2 -19 16 -22 159 -3 178 18 18 27 15 39 -15z"/>
<path d="M3454 1335 c-12 -18 -14 -29 -6 -37 14 -14 32 -2 32 22 0 23 13 32
34 24 25 -10 19 -51 -9 -70 -32 -21 -32 -36 -1 -28 20 5 25 2 28 -18 10 -66
-26 -99 -62 -56 -17 20 -21 21 -30 8 -16 -24 25 -53 64 -44 68 14 99 81 57
123 -17 17 -18 21 -5 32 8 7 14 24 12 38 -3 23 -8 26 -50 29 -41 3 -49 0 -64
-23z"/>
<path d="M3711 1334 c-24 -30 -29 -116 -10 -157 25 -55 98 -53 126 3 19 38 16
110 -7 148 -26 43 -78 46 -109 6z m67 4 c19 -19 16 -162 -3 -178 -27 -23 -40
4 -40 83 0 97 13 125 43 95z"/>
<path d="M3880 1340 c-43 -43 -14 -120 44 -120 30 0 33 -2 29 -25 -8 -38 -30
-51 -51 -31 -24 21 -32 20 -32 -3 0 -26 26 -34 67 -20 53 17 84 99 63 164 -19
56 -81 74 -120 35z m68 -2 c15 -15 16 -80 1 -95 -22 -22 -39 -2 -39 46 0 60
12 75 38 49z"/>
</g>
</svg>
